<svg width="1544" height="993" viewBox="0 0 1544 993" fill="none" xmlns="http://www.w3.org/2000/svg">
<path d="M1544 0H0V991H1544V0Z" fill="white"/>
<path d="M0 158.388L85.7778 160.837C171.556 163.475 324.944 144.891 496.5 141.5C668.056 138.109 808.444 113.847 980 93.5C1151.56 73.1528 1372.44 79.8252 1458.22 65.5068L1544 51V993H1458.22C1372.44 993 1200.89 993 1029.33 993C857.778 993 686.222 993 514.667 993C343.111 993 171.556 993 85.7778 993H0V158.388Z" fill="#05CAFC"/>
<path d="M1544 356.337L1458.22 353.972C1372.44 351.803 1200.89 347.073 1029.33 369.149C857.778 391.225 686.222 439.714 514.667 441.488C343.111 443.065 171.556 397.73 85.7778 375.062L0 352.395V993H85.7778C171.556 993 343.111 993 514.667 993C686.222 993 857.778 993 1029.33 993C1200.89 993 1372.44 993 1458.22 993H1544V356.337Z" fill="#0088EC"/>
<path d="M0 609L85.7778 616.865C171.556 624.542 343.111 640.272 514.667 666.113C686.222 691.954 857.778 728.281 1029.33 720.791C1200.89 713.301 1372.44 661.993 1458.22 636.526L1544 610.873V991H1458.22C1372.44 991 1200.89 991 1029.33 991C857.778 991 686.222 991 514.667 991C343.111 991 171.556 991 85.7778 991H0V609Z" fill="#003CBE"/>
</svg>
